<svg xmlns="http://www.w3.org/2000/svg" width="39" height="39" viewBox="0 0 39 39">
  <g id="Leasons_List" data-name="Leasons List" transform="translate(-37 -308)">
    <g id="Rectangle_24" data-name="Rectangle 24" transform="translate(37 308)" fill="#0353a8" stroke="#f4f3f8" stroke-width="0.5">
      <rect width="39" height="39" rx="19.5" stroke="none"/>
      <rect x="0.25" y="0.25" width="38.5" height="38.5" rx="19.25" fill="none"/>
    </g>
    <g id="_x34_2" transform="translate(46.98 319.5)">
      <path id="Path_28393" data-name="Path 28393" d="M14.646,14.314H4.82a.638.638,0,0,1,0-1.276h9.826a.587.587,0,0,0,.582-.582c0-.071-.006-9.44-.006-9.511A1.444,1.444,0,0,0,13.778,1.5H4.82a1.808,1.808,0,0,0-1.8,1.8V13.679a1.8,1.8,0,0,0,1.8,1.8h9.826a.582.582,0,1,0,0-1.165ZM4.185,3.3a.644.644,0,0,1,.635-.635h.536v9.208a3.244,3.244,0,0,0-1.171.116V3.3Zm4.2,2.9a.843.843,0,0,1,.437-.74.834.834,0,0,1,.862.029l1.666,1.072a.837.837,0,0,1,0,1.415L9.683,9.048a.843.843,0,0,1-1.3-.711Z" transform="translate(0 0)" fill="#f4f3f8"/>
    </g>
  </g>
</svg>
