<svg xmlns="http://www.w3.org/2000/svg" width="39" height="39" viewBox="0 0 39 39">
  <g id="Manager_List_Color_Icon" data-name="Manager List Color Icon" transform="translate(-35 -416)">
    <g id="Path_28417" data-name="Path 28417" transform="translate(35 416)" fill="#0353a8">
      <path d="M 19.5 38.75 C 16.90115928649902 38.75 14.38018035888672 38.24106979370117 12.00710964202881 37.23733901977539 C 9.714859962463379 36.26779937744141 7.6561598777771 34.87976837158203 5.888199806213379 33.11180114746094 C 4.120230197906494 31.34383964538574 2.732199907302856 29.2851390838623 1.762660026550293 26.99288940429688 C 0.7589300274848938 24.61981964111328 0.25 22.09884071350098 0.25 19.5 C 0.25 16.90115928649902 0.7589300274848938 14.38018035888672 1.762660026550293 12.00710964202881 C 2.732199907302856 9.714859962463379 4.120230197906494 7.6561598777771 5.888199806213379 5.888199806213379 C 7.6561598777771 4.120230197906494 9.714859962463379 2.732199907302856 12.00710964202881 1.762660026550293 C 14.38018035888672 0.7589300274848938 16.90115928649902 0.25 19.5 0.25 C 22.09884071350098 0.25 24.61981964111328 0.7589300274848938 26.99288940429688 1.762660026550293 C 29.2851390838623 2.732199907302856 31.34383964538574 4.120230197906494 33.11180114746094 5.888199806213379 C 34.87976837158203 7.6561598777771 36.26779937744141 9.714859962463379 37.23733901977539 12.00710964202881 C 38.24106979370117 14.38018035888672 38.75 16.90115928649902 38.75 19.5 C 38.75 22.09884071350098 38.24106979370117 24.61981964111328 37.23733901977539 26.99288940429688 C 36.26779937744141 29.2851390838623 34.87976837158203 31.34383964538574 33.11180114746094 33.11180114746094 C 31.34383964538574 34.87976837158203 29.2851390838623 36.26779937744141 26.99288940429688 37.23733901977539 C 24.61981964111328 38.24106979370117 22.09884071350098 38.75 19.5 38.75 Z" stroke="none"/>
      <path d="M 19.5 0.5 C 16.93479919433594 0.5 14.44659042358398 1.002288818359375 12.10449981689453 1.992908477783203 C 9.842050552368164 2.949840545654297 7.810060501098633 4.319881439208984 6.064968109130859 6.064968109130859 C 4.319881439208984 7.810060501098633 2.949840545654297 9.842050552368164 1.992908477783203 12.10449981689453 C 1.002288818359375 14.44659042358398 0.5 16.93479919433594 0.5 19.5 C 0.5 22.06520080566406 1.002288818359375 24.55340957641602 1.992908477783203 26.89550018310547 C 2.949840545654297 29.15795135498047 4.319881439208984 31.18993949890137 6.064968109130859 32.93502807617188 C 7.810060501098633 34.68011856079102 9.842050552368164 36.0501594543457 12.10449981689453 37.0070915222168 C 14.44659042358398 37.99771118164062 16.93479919433594 38.5 19.5 38.5 C 22.06520080566406 38.5 24.55340957641602 37.99771118164062 26.89550018310547 37.0070915222168 C 29.15795135498047 36.0501594543457 31.18993949890137 34.68011856079102 32.93502807617188 32.93502807617188 C 34.68011856079102 31.18993949890137 36.0501594543457 29.15795135498047 37.0070915222168 26.89550018310547 C 37.99771118164062 24.55340957641602 38.5 22.06520080566406 38.5 19.5 C 38.5 16.93479919433594 37.99771118164062 14.44659042358398 37.0070915222168 12.10449981689453 C 36.0501594543457 9.842050552368164 34.68011856079102 7.810060501098633 32.93502807617188 6.064968109130859 C 31.18993949890137 4.319881439208984 29.15795135498047 2.949840545654297 26.89550018310547 1.992908477783203 C 24.55340957641602 1.002288818359375 22.06520080566406 0.5 19.5 0.5 M 19.5 0 C 30.26955032348633 0 39 8.730449676513672 39 19.5 C 39 30.26955032348633 30.26955032348633 39 19.5 39 C 8.730449676513672 39 0 30.26955032348633 0 19.5 C 0 8.730449676513672 8.730449676513672 0 19.5 0 Z" stroke="none" fill="#fff"/>
    </g>
    <g id="Group_21481" data-name="Group 21481" transform="translate(-289.598 -45.017)">
      <path id="Path_28407" data-name="Path 28407" d="M343.971,602.36q-2.1,0-4.2,0A1.039,1.039,0,0,1,338.6,601.2c0-1.2,0-2.4,0-3.6a2.49,2.49,0,0,1,.762-1.864,2.281,2.281,0,0,1,1.3-.582c.3-.046.593-.089.889-.137.4-.065.427-.051.562.32q.765,2.1,1.532,4.2a.68.68,0,0,0,.16.277c.171.15.39.045.491-.229.279-.759.552-1.519.829-2.279.249-.683.5-1.363.745-2.048A.335.335,0,0,1,346.3,595c.384.07.772.122,1.155.2a2.305,2.305,0,0,1,1.87,2.133c.039,1.345.026,2.692.01,4.039a.989.989,0,0,1-1.075.992C346.827,602.363,345.4,602.36,343.971,602.36Z" transform="translate(0 -114.365)" fill="#fff"/>
      <path id="Path_28408" data-name="Path 28408" d="M386.532,476.739a2.756,2.756,0,1,1,2.673,2.791A2.759,2.759,0,0,1,386.532,476.739Z" transform="translate(-45.316 0)" fill="#fff"/>
      <path id="Path_28409" data-name="Path 28409" d="M424.54,590.168c.258.1.542-.021.686.267.135.27-.094.443-.22.628a.708.708,0,0,0-.137.581c.058.284.058.579.112.864a2.408,2.408,0,0,1-.327,1.3c-.047.131-.169.1-.214-.021a2.326,2.326,0,0,1-.3-1.409,6.185,6.185,0,0,0,.113-.919.464.464,0,0,0-.043-.2c-.023-.058-.074-.1-.1-.161-.107-.215-.418-.415-.207-.666C424.037,590.272,424.323,590.25,424.54,590.168Z" transform="translate(-80.583 -109.809)" fill="#fff"/>
    </g>
  </g>
</svg>
