<svg xmlns="http://www.w3.org/2000/svg" width="39" height="39" viewBox="0 0 39 39">
  <g id="Therapist_icon" data-name="Therapist icon" transform="translate(-37 -360)">
    <g id="Path_28422" data-name="Path 28422" transform="translate(37 360)" fill="#0353a8">
      <path d="M 19.5 38.75 C 16.90115928649902 38.75 14.38018035888672 38.24106979370117 12.00710964202881 37.23733901977539 C 9.714859962463379 36.26779937744141 7.6561598777771 34.87976837158203 5.888199806213379 33.11180114746094 C 4.120230197906494 31.34383964538574 2.732199907302856 29.2851390838623 1.762660026550293 26.99288940429688 C 0.7589300274848938 24.61981964111328 0.25 22.09884071350098 0.25 19.5 C 0.25 16.90115928649902 0.7589300274848938 14.38018035888672 1.762660026550293 12.00710964202881 C 2.732199907302856 9.714859962463379 4.120230197906494 7.6561598777771 5.888199806213379 5.888199806213379 C 7.6561598777771 4.120230197906494 9.714859962463379 2.732199907302856 12.00710964202881 1.762660026550293 C 14.38018035888672 0.7589300274848938 16.90115928649902 0.25 19.5 0.25 C 22.09884071350098 0.25 24.61981964111328 0.7589300274848938 26.99288940429688 1.762660026550293 C 29.2851390838623 2.732199907302856 31.34383964538574 4.120230197906494 33.11180114746094 5.888199806213379 C 34.87976837158203 7.6561598777771 36.26779937744141 9.714859962463379 37.23733901977539 12.00710964202881 C 38.24106979370117 14.38018035888672 38.75 16.90115928649902 38.75 19.5 C 38.75 22.09884071350098 38.24106979370117 24.61981964111328 37.23733901977539 26.99288940429688 C 36.26779937744141 29.2851390838623 34.87976837158203 31.34383964538574 33.11180114746094 33.11180114746094 C 31.34383964538574 34.87976837158203 29.2851390838623 36.26779937744141 26.99288940429688 37.23733901977539 C 24.61981964111328 38.24106979370117 22.09884071350098 38.75 19.5 38.75 Z" stroke="none"/>
      <path d="M 19.5 0.5 C 16.93479919433594 0.5 14.44659042358398 1.002288818359375 12.10449981689453 1.992908477783203 C 9.842050552368164 2.949840545654297 7.810060501098633 4.319881439208984 6.064968109130859 6.064968109130859 C 4.319881439208984 7.810060501098633 2.949840545654297 9.842050552368164 1.992908477783203 12.10449981689453 C 1.002288818359375 14.44659042358398 0.5 16.93479919433594 0.5 19.5 C 0.5 22.06520080566406 1.002288818359375 24.55340957641602 1.992908477783203 26.89550018310547 C 2.949840545654297 29.15795135498047 4.319881439208984 31.18993949890137 6.064968109130859 32.93502807617188 C 7.810060501098633 34.68011856079102 9.842050552368164 36.0501594543457 12.10449981689453 37.0070915222168 C 14.44659042358398 37.99771118164062 16.93479919433594 38.5 19.5 38.5 C 22.06520080566406 38.5 24.55340957641602 37.99771118164062 26.89550018310547 37.0070915222168 C 29.15795135498047 36.0501594543457 31.18993949890137 34.68011856079102 32.93502807617188 32.93502807617188 C 34.68011856079102 31.18993949890137 36.0501594543457 29.15795135498047 37.0070915222168 26.89550018310547 C 37.99771118164062 24.55340957641602 38.5 22.06520080566406 38.5 19.5 C 38.5 16.93479919433594 37.99771118164062 14.44659042358398 37.0070915222168 12.10449981689453 C 36.0501594543457 9.842050552368164 34.68011856079102 7.810060501098633 32.93502807617188 6.064968109130859 C 31.18993949890137 4.319881439208984 29.15795135498047 2.949840545654297 26.89550018310547 1.992908477783203 C 24.55340957641602 1.002288818359375 22.06520080566406 0.5 19.5 0.5 M 19.5 0 C 30.26955032348633 0 39 8.730449676513672 39 19.5 C 39 30.26955032348633 30.26955032348633 39 19.5 39 C 8.730449676513672 39 0 30.26955032348633 0 19.5 C 0 8.730449676513672 8.730449676513672 0 19.5 0 Z" stroke="none" fill="#fff"/>
    </g>
    <g id="Group_21478" data-name="Group 21478" transform="translate(-129.414 -41.001)">
      <path id="Path_28399" data-name="Path 28399" d="M187.4,487.757a3.863,3.863,0,0,0,.313-.514c.253-.622.482-1.254.734-1.877a.976.976,0,0,0-.092-.957q-.6-.928-1.181-1.866a.933.933,0,0,0-.858-.477q-1.337.009-2.674,0a.933.933,0,0,0-.862.471q-.583.938-1.182,1.865a1,1,0,0,0-.089.982c.232.572.44,1.154.676,1.724a7.016,7.016,0,0,0,.37.676c-.166.191-.367.425-.572.656a1.393,1.393,0,0,0-.389.908c-.013.8-.018,1.6,0,2.4a.57.57,0,0,0,.626.578c.091,0,.182,0,.273,0,.482,0,.7-.219.706-.7,0-.618-.02-1.238.012-1.855a1.035,1.035,0,0,1,.245-.635c.476-.474,1-.9,1.5-1.346.107-.094.192-.083.3.03q1.922,2.032,3.854,4.053a1.353,1.353,0,0,0,.159.149.793.793,0,0,0,1.266-.462.87.87,0,0,0-.291-.833C189.281,489.734,188.328,488.734,187.4,487.757Z" transform="translate(0 -64.349)" fill="#fff"/>
      <path id="Path_28400" data-name="Path 28400" d="M217.6,417.345a1.672,1.672,0,1,0-1.667-1.687A1.66,1.66,0,0,0,217.6,417.345Z" transform="translate(-32.631 0)" fill="#fff"/>
      <path id="Path_28401" data-name="Path 28401" d="M187.4,487.757c.932.976,1.886,1.977,2.841,2.975a.87.87,0,0,1,.291.833.793.793,0,0,1-1.266.462,1.353,1.353,0,0,1-.159-.149q-1.929-2.025-3.854-4.053c-.107-.113-.191-.124-.3-.03-.505.444-1.027.873-1.5,1.346a1.035,1.035,0,0,0-.245.635c-.032.617-.009,1.236-.012,1.855,0,.477-.223.693-.706.7-.091,0-.182,0-.273,0a.57.57,0,0,1-.626-.578c-.015-.8-.01-1.6,0-2.4a1.393,1.393,0,0,1,.389-.908c.2-.231.405-.465.572-.656a7.016,7.016,0,0,1-.37-.676c-.236-.57-.444-1.152-.676-1.724a1,1,0,0,1,.089-.982q.6-.926,1.182-1.865a.933.933,0,0,1,.862-.471q1.337.009,2.674,0a.933.933,0,0,1,.858.477q.582.938,1.181,1.866a.976.976,0,0,1,.092.957c-.252.623-.48,1.255-.734,1.877A3.863,3.863,0,0,1,187.4,487.757Z" transform="translate(0 -64.349)" fill="#fff"/>
      <path id="Path_28402" data-name="Path 28402" d="M279.2,521.91l.045.013c.158-.38.323-.758.468-1.143a.4.4,0,0,0-.017-.289c-.138-.267-.3-.521-.453-.78l-.042.022Z" transform="translate(-92.45 -99.938)"/>
      <path id="Path_28403" data-name="Path 28403" d="M204.952,521.119l.038-.01v-2.24a7.462,7.462,0,0,0-.443.731.651.651,0,0,0-.035.44C204.635,520.407,204.8,520.76,204.952,521.119Z" transform="translate(-21.814 -99.142)"/>
      <path id="Path_28404" data-name="Path 28404" d="M217.6,417.345a1.672,1.672,0,1,1,1.673-1.653A1.662,1.662,0,0,1,217.6,417.345Z" transform="translate(-32.631 0)" fill="#fff"/>
      <path id="Path_28405" data-name="Path 28405" d="M279.2,521.91v-2.177l.042-.022c.153.259.315.514.453.78a.4.4,0,0,1,.017.289c-.145.385-.31.762-.468,1.143Z" transform="translate(-92.45 -99.938)" fill="#0e4072"/>
      <path id="Path_28406" data-name="Path 28406" d="M204.952,521.119c-.15-.359-.316-.712-.441-1.079a.651.651,0,0,1,.035-.44,7.462,7.462,0,0,1,.443-.731v2.24Z" transform="translate(-21.814 -99.142)" fill="#0e4072"/>
    </g>
  </g>
</svg>
