<svg xmlns="http://www.w3.org/2000/svg" width="39" height="39" viewBox="0 0 39 39">
  <g id="User_Icon" data-name="User Icon" transform="translate(-35 -252)">
    <g id="User_List" data-name="User List" transform="translate(35 252)" fill="#0353a8">
      <path d="M 19.5 38.75 C 16.90115928649902 38.75 14.38018035888672 38.24106979370117 12.00710964202881 37.23733901977539 C 9.714859962463379 36.26779937744141 7.6561598777771 34.87976837158203 5.888199806213379 33.11180114746094 C 4.120230197906494 31.34383964538574 2.732199907302856 29.2851390838623 1.762660026550293 26.99288940429688 C 0.7589300274848938 24.61981964111328 0.25 22.09884071350098 0.25 19.5 C 0.25 16.90115928649902 0.7589300274848938 14.38018035888672 1.762660026550293 12.00710964202881 C 2.732199907302856 9.714859962463379 4.120230197906494 7.6561598777771 5.888199806213379 5.888199806213379 C 7.6561598777771 4.120230197906494 9.714859962463379 2.732199907302856 12.00710964202881 1.762660026550293 C 14.38018035888672 0.7589300274848938 16.90115928649902 0.25 19.5 0.25 C 22.09884071350098 0.25 24.61981964111328 0.7589300274848938 26.99288940429688 1.762660026550293 C 29.2851390838623 2.732199907302856 31.34383964538574 4.120230197906494 33.11180114746094 5.888199806213379 C 34.87976837158203 7.6561598777771 36.26779937744141 9.714859962463379 37.23733901977539 12.00710964202881 C 38.24106979370117 14.38018035888672 38.75 16.90115928649902 38.75 19.5 C 38.75 22.09884071350098 38.24106979370117 24.61981964111328 37.23733901977539 26.99288940429688 C 36.26779937744141 29.2851390838623 34.87976837158203 31.34383964538574 33.11180114746094 33.11180114746094 C 31.34383964538574 34.87976837158203 29.2851390838623 36.26779937744141 26.99288940429688 37.23733901977539 C 24.61981964111328 38.24106979370117 22.09884071350098 38.75 19.5 38.75 Z" stroke="none"/>
      <path d="M 19.5 0.5 C 16.93479919433594 0.5 14.44659042358398 1.002288818359375 12.10449981689453 1.992908477783203 C 9.842050552368164 2.949840545654297 7.810060501098633 4.319881439208984 6.064968109130859 6.064968109130859 C 4.319881439208984 7.810060501098633 2.949840545654297 9.842050552368164 1.992908477783203 12.10449981689453 C 1.002288818359375 14.44659042358398 0.5 16.93479919433594 0.5 19.5 C 0.5 22.06520080566406 1.002288818359375 24.55340957641602 1.992908477783203 26.89550018310547 C 2.949840545654297 29.15795135498047 4.319881439208984 31.18993949890137 6.064968109130859 32.93502807617188 C 7.810060501098633 34.68011856079102 9.842050552368164 36.0501594543457 12.10449981689453 37.0070915222168 C 14.44659042358398 37.99771118164062 16.93479919433594 38.5 19.5 38.5 C 22.06520080566406 38.5 24.55340957641602 37.99771118164062 26.89550018310547 37.0070915222168 C 29.15795135498047 36.0501594543457 31.18993949890137 34.68011856079102 32.93502807617188 32.93502807617188 C 34.68011856079102 31.18993949890137 36.0501594543457 29.15795135498047 37.0070915222168 26.89550018310547 C 37.99771118164062 24.55340957641602 38.5 22.06520080566406 38.5 19.5 C 38.5 16.93479919433594 37.99771118164062 14.44659042358398 37.0070915222168 12.10449981689453 C 36.0501594543457 9.842050552368164 34.68011856079102 7.810060501098633 32.93502807617188 6.064968109130859 C 31.18993949890137 4.319881439208984 29.15795135498047 2.949840545654297 26.89550018310547 1.992908477783203 C 24.55340957641602 1.002288818359375 22.06520080566406 0.5 19.5 0.5 M 19.5 0 C 30.26955032348633 0 39 8.730449676513672 39 19.5 C 39 30.26955032348633 30.26955032348633 39 19.5 39 C 8.730449676513672 39 0 30.26955032348633 0 19.5 C 0 8.730449676513672 8.730449676513672 0 19.5 0 Z" stroke="none" fill="#fff"/>
    </g>
    <g id="Group_21469" data-name="Group 21469" transform="translate(-2996.006 1085.469)">
      <g id="Group_20575" data-name="Group 20575" transform="translate(3043.006 -820.47)">
        <circle id="Ellipse_238" data-name="Ellipse 238" cx="2.698" cy="2.698" r="2.698" transform="translate(5.241)" fill="#fff"/>
        <circle id="Ellipse_239" data-name="Ellipse 239" cx="1.706" cy="1.706" r="1.706" transform="translate(11.691 1.958)" fill="#fff"/>
        <circle id="Ellipse_240" data-name="Ellipse 240" cx="1.706" cy="1.706" r="1.706" transform="translate(0.775 1.958)" fill="#fff"/>
        <path id="Path_19171" data-name="Path 19171" d="M4.161,241.009a2.758,2.758,0,0,0-2.056-.477A2.1,2.1,0,0,0,0,242.624v3.387a.911.911,0,0,0,.912.909c2.172,0,1.91.039,1.91-.094C2.822,244.426,2.538,242.666,4.161,241.009Z" transform="translate(0 -234.192)" fill="#fff"/>
        <path id="Path_19172" data-name="Path 19172" d="M125.135,239.887a4.6,4.6,0,0,0-3.551.84c-1.7,1.363-1.374,3.2-1.374,5.442a1.088,1.088,0,0,0,1.086,1.086c6.546,0,6.806.211,7.194-.648.127-.291.092-.2.092-2.979A3.76,3.76,0,0,0,125.135,239.887Z" transform="translate(-116.458 -233.538)" fill="#fff"/>
        <path id="Path_19173" data-name="Path 19173" d="M379.866,240.533a2.756,2.756,0,0,0-2.056.477c1.611,1.645,1.339,3.285,1.339,5.817,0,.134-.217.094,1.877.094a.944.944,0,0,0,.945-.941v-3.354A2.1,2.1,0,0,0,379.866,240.533Z" transform="translate(-366.094 -234.193)" fill="#fff"/>
      </g>
    </g>
  </g>
</svg>
