<svg xmlns="http://www.w3.org/2000/svg" width="43" height="43" viewBox="0 0 43 43">
  <g id="Description_Icon" data-name="Description Icon" transform="translate(-189 -421)">
    <path id="Path_28186" data-name="Path 28186" d="M21.5,0A21.5,21.5,0,1,1,0,21.5,21.5,21.5,0,0,1,21.5,0Z" transform="translate(189 421)" fill="#0e4072"/>
    <path id="Icon_material-description" data-name="Icon material-description" d="M14.149,3H7.63A1.628,1.628,0,0,0,6.008,4.63L6,17.668A1.628,1.628,0,0,0,7.622,19.3h9.787a1.635,1.635,0,0,0,1.63-1.63V7.889Zm1.63,13.038H9.259v-1.63h6.519Zm0-3.259H9.259v-1.63h6.519ZM13.334,8.7V4.222L17.816,8.7Z" transform="translate(198 431)" fill="#fff"/>
  </g>
</svg>
