<svg xmlns="http://www.w3.org/2000/svg" width="22.792" height="19.915" viewBox="0 0 22.792 19.915"><defs><style>.a{fill:#0e183a;}</style></defs><g transform="translate(-24)"><g transform="translate(24 0)"><path class="a" d="M132.805,61.456l13.533.014a.712.712,0,0,0,0-1.424l-13.533-.014a.712.712,0,0,0,0,1.424Z" transform="translate(-124.272 -57.917)"/><path class="a" d="M146.578,180.228l-13.533-.014a.712.712,0,0,0,0,1.424l13.533.014a.712.712,0,1,0,0-1.424Z" transform="translate(-124.498 -170.983)"/><path class="a" d="M146.578,300.531l-13.533-.014a.712.712,0,0,0,0,1.424l13.533.014a.712.712,0,1,0,0-1.424Z" transform="translate(-124.498 -284.164)"/><path class="a" d="M2.842,24.3a2.842,2.842,0,1,0,2.842,2.842A2.842,2.842,0,0,0,2.842,24.3Zm-.007,4.266a1.425,1.425,0,1,1,0-2.849,1.425,1.425,0,0,1,0,2.849Z" transform="translate(0 -24.301)"/><path class="a" d="M2.842,144.6a2.842,2.842,0,1,0,2.842,2.842A2.842,2.842,0,0,0,2.842,144.6Zm-.007,4.266a1.425,1.425,0,1,1,0-2.849,1.425,1.425,0,0,1,0,2.849Z" transform="translate(0 -137.482)"/><path class="a" d="M2.842,264.667a2.842,2.842,0,1,0,2.842,2.842A2.842,2.842,0,0,0,2.842,264.667Zm-.007,4.266a1.425,1.425,0,1,1,0-2.849,1.425,1.425,0,0,1,0,2.849Z" transform="translate(0 -250.436)"/></g></g></svg>