<svg xmlns="http://www.w3.org/2000/svg" width="23.487" height="14" viewBox="0 0 23.487 14">
  <path id="View_Password" data-name="View Password" d="M11.744,98.725c-4.487,0-8.557,2.455-11.56,6.443a.93.93,0,0,0,0,1.11c3,3.993,7.072,6.448,11.56,6.448s8.557-2.455,11.56-6.443a.93.93,0,0,0,0-1.11C20.3,101.18,16.231,98.725,11.744,98.725Zm.322,11.93a4.94,4.94,0,1,1,4.608-4.608A4.943,4.943,0,0,1,12.066,110.655Zm-.149-2.277a2.66,2.66,0,1,1,2.484-2.484A2.656,2.656,0,0,1,11.917,108.377Z" transform="translate(0 -98.725)" fill="#fff"/>
</svg>
