<svg xmlns="http://www.w3.org/2000/svg" width="35" height="35" viewBox="0 0 35 35">
  <g id="Case_manager" data-name="Case manager" transform="translate(-37 -452)">
    <rect id="Rectangle_4710" data-name="Rectangle 4710" width="35" height="35" rx="17.5" transform="translate(37 452)" fill="#0e4072"/>
    <g id="Group_21481" data-name="Group 21481" transform="translate(-289.598 -11.017)">
      <path id="Path_28407" data-name="Path 28407" d="M343.971,602.36q-2.1,0-4.2,0A1.039,1.039,0,0,1,338.6,601.2c0-1.2,0-2.4,0-3.6a2.49,2.49,0,0,1,.762-1.864,2.281,2.281,0,0,1,1.3-.582c.3-.046.593-.089.889-.137.4-.065.427-.051.562.32q.765,2.1,1.532,4.2a.68.68,0,0,0,.16.277c.171.15.39.045.491-.229.279-.759.552-1.519.829-2.279.249-.683.5-1.363.745-2.048A.335.335,0,0,1,346.3,595c.384.07.772.122,1.155.2a2.305,2.305,0,0,1,1.87,2.133c.039,1.345.026,2.692.01,4.039a.989.989,0,0,1-1.075.992C346.827,602.363,345.4,602.36,343.971,602.36Z" transform="translate(0 -114.365)" fill="#fff"/>
      <path id="Path_28408" data-name="Path 28408" d="M386.532,476.739a2.756,2.756,0,1,1,2.673,2.791A2.759,2.759,0,0,1,386.532,476.739Z" transform="translate(-45.316 0)" fill="#fff"/>
      <path id="Path_28409" data-name="Path 28409" d="M424.54,590.168c.258.1.542-.021.686.267.135.27-.094.443-.22.628a.708.708,0,0,0-.137.581c.058.284.058.579.112.864a2.408,2.408,0,0,1-.327,1.3c-.047.131-.169.1-.214-.021a2.326,2.326,0,0,1-.3-1.409,6.185,6.185,0,0,0,.113-.919.464.464,0,0,0-.043-.2c-.023-.058-.074-.1-.1-.161-.107-.215-.418-.415-.207-.666C424.037,590.272,424.323,590.25,424.54,590.168Z" transform="translate(-80.583 -109.809)" fill="#fff"/>
    </g>
  </g>
</svg>
