<svg xmlns="http://www.w3.org/2000/svg" width="37.691" height="37.691" viewBox="0 0 37.691 37.691">
  <g id="Dashboard_Lessons" data-name="Dashboard Lessons" transform="translate(-578 -328)">
    <circle id="Oval" cx="18.846" cy="18.846" r="18.846" transform="translate(578 328)" fill="#0353a8"/>
    <g id="_x34_2" transform="translate(585.98 336.5)">
      <path id="Path_28393" data-name="Path 28393" d="M17.269,17.205H5.226a.782.782,0,0,1,0-1.563H17.269a.72.72,0,0,0,.714-.714c0-.087-.007-11.571-.007-11.657a1.77,1.77,0,0,0-1.77-1.77H5.226A2.216,2.216,0,0,0,3.02,3.706V16.427a2.205,2.205,0,0,0,2.206,2.206H17.269a.714.714,0,1,0,0-1.428ZM4.448,3.706a.789.789,0,0,1,.778-.778h.657V14.214a3.976,3.976,0,0,0-1.435.143V3.706ZM9.595,7.261a1.033,1.033,0,0,1,.535-.907,1.022,1.022,0,0,1,1.057.036L13.228,7.7a1.026,1.026,0,0,1,0,1.735l-2.042,1.314a1.034,1.034,0,0,1-1.592-.871Z" transform="translate(0 0)" fill="#f4f3f8"/>
    </g>
  </g>
</svg>
