<svg xmlns="http://www.w3.org/2000/svg" width="35" height="35" viewBox="0 0 35 35">
  <g id="manage_payments" data-name="manage payments" transform="translate(-37 -422)">
    <rect id="Rectangle_4686" data-name="Rectangle 4686" width="35" height="35" rx="17.5" transform="translate(37 422)" fill="#0e4072"/>
    <g id="Group_21142" data-name="Group 21142" transform="translate(-45.882 277.999)">
      <path id="Path_27631" data-name="Path 27631" d="M100.462,215.917c2.712,0,5.423.005,8.135-.007.323,0,.415.095.413.415-.014,1.8,0,3.6-.007,5.4a1.861,1.861,0,0,1-1.935,1.927q-6.6,0-13.2,0a1.865,1.865,0,0,1-1.939-1.957c0-1.789.006-3.579-.007-5.368,0-.315.08-.42.409-.419C95.039,215.922,97.75,215.917,100.462,215.917Zm-5.068,5.071c.643,0,.8-.15.8-.761,0-.7-.135-.842-.786-.842-.669,0-.817.14-.817.777C94.591,220.844,94.73,220.987,95.394,220.987Z" transform="translate(-0.034 -55.911)" fill="#fff"/>
      <path id="Path_27632" data-name="Path 27632" d="M100.434,158.936c-2.711,0-5.423,0-8.134.006-.319,0-.445-.086-.413-.412a10.419,10.419,0,0,1,.062-1.059A1.81,1.81,0,0,1,93.759,156q6.667,0,13.334,0a1.858,1.858,0,0,1,1.876,1.886c0,.211-.017.424,0,.633.031.314-.075.424-.406.421-1.567-.016-3.133-.007-4.7-.007Z" transform="translate(0 0)" fill="#fff"/>
    </g>
  </g>
</svg>
