<svg xmlns="http://www.w3.org/2000/svg" width="35" height="35" viewBox="0 0 35 35">
  <g id="Therapist" transform="translate(-37 -396)">
    <rect id="Rectangle_4710" data-name="Rectangle 4710" width="35" height="35" rx="17.5" transform="translate(37 396)" fill="#0e4072"/>
    <g id="Group_21478" data-name="Group 21478" transform="translate(-131.414 -7.001)">
      <path id="Path_28399" data-name="Path 28399" d="M187.4,487.757a3.863,3.863,0,0,0,.313-.514c.253-.622.482-1.254.734-1.877a.976.976,0,0,0-.092-.957q-.6-.928-1.181-1.866a.933.933,0,0,0-.858-.477q-1.337.009-2.674,0a.933.933,0,0,0-.862.471q-.583.938-1.182,1.865a1,1,0,0,0-.089.982c.232.572.44,1.154.676,1.724a7.016,7.016,0,0,0,.37.676c-.166.191-.367.425-.572.656a1.393,1.393,0,0,0-.389.908c-.013.8-.018,1.6,0,2.4a.57.57,0,0,0,.626.578c.091,0,.182,0,.273,0,.482,0,.7-.219.706-.7,0-.618-.02-1.238.012-1.855a1.035,1.035,0,0,1,.245-.635c.476-.474,1-.9,1.5-1.346.107-.094.192-.083.3.03q1.922,2.032,3.854,4.053a1.353,1.353,0,0,0,.159.149.793.793,0,0,0,1.266-.462.87.87,0,0,0-.291-.833C189.281,489.734,188.328,488.734,187.4,487.757Z" transform="translate(0 -64.349)" fill="#fff"/>
      <path id="Path_28400" data-name="Path 28400" d="M217.6,417.345a1.672,1.672,0,1,0-1.667-1.687A1.66,1.66,0,0,0,217.6,417.345Z" transform="translate(-32.631 0)" fill="#fff"/>
      <path id="Path_28401" data-name="Path 28401" d="M187.4,487.757c.932.976,1.886,1.977,2.841,2.975a.87.87,0,0,1,.291.833.793.793,0,0,1-1.266.462,1.353,1.353,0,0,1-.159-.149q-1.929-2.025-3.854-4.053c-.107-.113-.191-.124-.3-.03-.505.444-1.027.873-1.5,1.346a1.035,1.035,0,0,0-.245.635c-.032.617-.009,1.236-.012,1.855,0,.477-.223.693-.706.7-.091,0-.182,0-.273,0a.57.57,0,0,1-.626-.578c-.015-.8-.01-1.6,0-2.4a1.393,1.393,0,0,1,.389-.908c.2-.231.405-.465.572-.656a7.016,7.016,0,0,1-.37-.676c-.236-.57-.444-1.152-.676-1.724a1,1,0,0,1,.089-.982q.6-.926,1.182-1.865a.933.933,0,0,1,.862-.471q1.337.009,2.674,0a.933.933,0,0,1,.858.477q.582.938,1.181,1.866a.976.976,0,0,1,.092.957c-.252.623-.48,1.255-.734,1.877A3.863,3.863,0,0,1,187.4,487.757Z" transform="translate(0 -64.349)" fill="#fff"/>
      <path id="Path_28402" data-name="Path 28402" d="M279.2,521.91l.045.013c.158-.38.323-.758.468-1.143a.4.4,0,0,0-.017-.289c-.138-.267-.3-.521-.453-.78l-.042.022Z" transform="translate(-92.45 -99.938)" fill="#fff"/>
      <path id="Path_28403" data-name="Path 28403" d="M204.952,521.119l.038-.01v-2.24a7.462,7.462,0,0,0-.443.731.651.651,0,0,0-.035.44C204.635,520.407,204.8,520.76,204.952,521.119Z" transform="translate(-21.814 -99.142)" fill="#fff"/>
      <path id="Path_28404" data-name="Path 28404" d="M217.6,417.345a1.672,1.672,0,1,1,1.673-1.653A1.662,1.662,0,0,1,217.6,417.345Z" transform="translate(-32.631 0)" fill="#fff"/>
      <path id="Path_28405" data-name="Path 28405" d="M279.2,521.91v-2.177l.042-.022c.153.259.315.514.453.78a.4.4,0,0,1,.017.289c-.145.385-.31.762-.468,1.143Z" transform="translate(-92.45 -99.938)" fill="#0e4072"/>
      <path id="Path_28406" data-name="Path 28406" d="M204.952,521.119c-.15-.359-.316-.712-.441-1.079a.651.651,0,0,1,.035-.44,7.462,7.462,0,0,1,.443-.731v2.24Z" transform="translate(-21.814 -99.142)" fill="#0e4072"/>
    </g>
  </g>
</svg>
